<svg width="805" height="473" viewBox="0 0 805 473" fill="none" xmlns="http://www.w3.org/2000/svg">
<g filter="url(#filter0_d_3_22)">
<path d="M720.5 356L723.082 363.946H731.437L724.678 368.857L727.26 376.804L720.5 371.893L713.74 376.804L716.322 368.857L709.563 363.946H717.918L720.5 356Z" fill="#FFF281"/>
<path d="M81.5 78L84.0819 85.9463H92.4371L85.6776 90.8574L88.2595 98.8037L81.5 93.8926L74.7405 98.8037L77.3224 90.8574L70.5629 85.9463H78.9181L81.5 78Z" fill="#D9D9D9"/>
<path d="M92.5 345L95.0819 352.946H103.437L96.6776 357.857L99.2595 365.804L92.5 360.893L85.7405 365.804L88.3224 357.857L81.5629 352.946H89.9181L92.5 345Z" fill="#FFA1A1"/>
<path d="M657.5 274L660.082 281.946H668.437L661.678 286.857L664.26 294.804L657.5 289.893L650.74 294.804L653.322 286.857L646.563 281.946H654.918L657.5 274Z" fill="#D9D9D9"/>
<path d="M623.5 374L626.082 381.946H634.437L627.678 386.857L630.26 394.804L623.5 389.893L616.74 394.804L619.322 386.857L612.563 381.946H620.918L623.5 374Z" fill="#FFA1A1"/>
<path d="M720.5 183L723.082 190.946H731.437L724.678 195.857L727.26 203.804L720.5 198.893L713.74 203.804L716.322 195.857L709.563 190.946H717.918L720.5 183Z" fill="#FFA1A1"/>
<path d="M546.5 55L549.082 62.9463H557.437L550.678 67.8574L553.26 75.8037L546.5 70.8926L539.74 75.8037L542.322 67.8574L535.563 62.9463H543.918L546.5 55Z" fill="#D9D9D9"/>
<path d="M680.5 38L683.082 45.9463H691.437L684.678 50.8574L687.26 58.8037L680.5 53.8926L673.74 58.8037L676.322 50.8574L669.563 45.9463H677.918L680.5 38Z" fill="white"/>
<path d="M646.5 114L649.082 121.946H657.437L650.678 126.857L653.26 134.804L646.5 129.893L639.74 134.804L642.322 126.857L635.563 121.946H643.918L646.5 114Z" fill="#FFF281"/>
<path d="M450.5 20L453.082 27.9463H461.437L454.678 32.8574L457.26 40.8037L450.5 35.8926L443.74 40.8037L446.322 32.8574L439.563 27.9463H447.918L450.5 20Z" fill="#FFA1A1"/>
<path d="M505.5 386L508.082 393.946H516.437L509.678 398.857L512.26 406.804L505.5 401.893L498.74 406.804L501.322 398.857L494.563 393.946H502.918L505.5 386Z" fill="#FFF281"/>
<path d="M247.5 368L250.082 375.946H258.437L251.678 380.857L254.26 388.804L247.5 383.893L240.74 388.804L243.322 380.857L236.563 375.946H244.918L247.5 368Z" fill="#FFA1A1"/>
<path d="M312.5 38L315.082 45.9463H323.437L316.678 50.8574L319.26 58.8037L312.5 53.8926L305.74 58.8037L308.322 50.8574L301.563 45.9463H309.918L312.5 38Z" fill="#FFF281"/>
<path d="M92.5 195L95.0819 202.946H103.437L96.6776 207.857L99.2595 215.804L92.5 210.893L85.7405 215.804L88.3224 207.857L81.5629 202.946H89.9181L92.5 195Z" fill="#FFF281"/>
<path d="M376.5 390L379.082 397.946H387.437L380.678 402.857L383.26 410.804L376.5 405.893L369.74 410.804L372.322 402.857L365.563 397.946H373.918L376.5 390Z" fill="white"/>
<path d="M187.5 39L190.082 46.9463H198.437L191.678 51.8574L194.26 59.8037L187.5 54.8926L180.74 59.8037L183.322 51.8574L176.563 46.9463H184.918L187.5 39Z" fill="white"/>
<path d="M187.5 230L190.082 237.946H198.437L191.678 242.857L194.26 250.804L187.5 245.893L180.74 250.804L183.322 242.857L176.563 237.946H184.918L187.5 230Z" fill="white"/>
<path d="M123.5 397L126.082 404.946H134.437L127.678 409.857L130.26 417.804L123.5 412.893L116.74 417.804L119.322 409.857L112.563 404.946H120.918L123.5 397Z" fill="#D9D9D9"/>
</g>
<defs>
<filter id="filter0_d_3_22" x="0" y="0" width="805" height="473" filterUnits="userSpaceOnUse" color-interpolation-filters="sRGB">
<feFlood flood-opacity="0" result="BackgroundImageFix"/>
<feColorMatrix in="SourceAlpha" type="matrix" values="0 0 0 0 0 0 0 0 0 0 0 0 0 0 0 0 0 0 127 0" result="hardAlpha"/>
<feOffset dy="4"/>
<feGaussianBlur stdDeviation="2"/>
<feComposite in2="hardAlpha" operator="out"/>
<feColorMatrix type="matrix" values="0 0 0 0 0 0 0 0 0 0 0 0 0 0 0 0 0 0 0.25 0"/>
<feBlend mode="normal" in2="BackgroundImageFix" result="effect1_dropShadow_3_22"/>
<feBlend mode="normal" in="SourceGraphic" in2="effect1_dropShadow_3_22" result="shape"/>
</filter>
</defs>
</svg>
